<svg width="10" height="10" viewBox="0 0 10 10" fill="none" xmlns="http://www.w3.org/2000/svg">
<path d="M0.562113 5.78454L0.546504 5.78113L7.23805 5.78113L5.13447 7.88934C5.03146 7.99226 4.97496 8.13169 4.97496 8.27804C4.97496 8.42438 5.03146 8.56283 5.13447 8.666L5.46179 8.99348C5.56471 9.09641 5.70187 9.15332 5.84813 9.15332C5.99447 9.15332 6.13171 9.09682 6.23463 8.99389L9.84057 5.38828C9.9439 5.28495 10.0004 5.14731 10 5.00088C10.0004 4.85365 9.9439 4.71592 9.84057 4.61275L6.23463 1.00682C6.13171 0.903973 5.99455 0.847388 5.84813 0.847388C5.70187 0.847388 5.56471 0.904055 5.46179 1.00682L5.13447 1.3343C5.03146 1.43706 4.97496 1.5743 4.97496 1.72064C4.97496 1.8669 5.03146 1.9969 5.13447 2.09975L7.26179 4.21974L0.554634 4.21974C0.253252 4.21974 -4.08598e-07 4.4795 -3.82265e-07 4.78072L-3.41773e-07 5.24389C-3.1544e-07 5.54511 0.260731 5.78454 0.562113 5.78454Z" fill="#2274EE"/>
</svg>
